<svg width="34" height="34" viewBox="0 0 34 34" fill="#000" xmlns="http://www.w3.org/2000/svg">
<path d="M26.5058 27.625C25.33 29.3817 24.0833 31.0958 22.185 31.1242C20.2866 31.1667 19.6775 30.005 17.5241 30.005C15.3566 30.005 14.6908 31.0958 12.8916 31.1667C11.0358 31.2375 9.6333 29.2967 8.4433 27.5825C6.0208 24.0833 4.16497 17.6375 6.6583 13.3025C7.8908 11.1492 10.1008 9.78916 12.495 9.74666C14.3083 9.71833 16.0366 10.9792 17.1558 10.9792C18.2608 10.9792 20.3575 9.46333 22.5533 9.68999C23.4741 9.73249 26.0525 10.0583 27.71 12.495C27.5825 12.58 24.6358 14.3083 24.6641 17.8925C24.7066 22.1708 28.4183 23.6017 28.4608 23.6158C28.4183 23.715 27.8658 25.6558 26.5058 27.625ZM18.4166 4.95833C19.4508 3.78249 21.165 2.88999 22.5816 2.83333C22.7658 4.49083 22.1 6.16249 21.1083 7.35249C20.1308 8.55666 18.5158 9.49166 16.9291 9.36416C16.7166 7.73499 17.51 6.03499 18.4166 4.95833Z" fill=""></path>
</svg>